<svg width="22" height="23" viewBox="0 0 22 23" fill="none" xmlns="http://www.w3.org/2000/svg">
<path fill-rule="evenodd" clip-rule="evenodd" d="M20.6006 8.23585H1.40062V21.4359H20.6006V8.23585ZM1.40062 7.03585C1.08236 7.03585 0.777138 7.16228 0.552094 7.38732C0.327051 7.61237 0.200623 7.91759 0.200623 8.23585V21.4359C0.200623 21.7541 0.327051 22.0593 0.552094 22.2844C0.777138 22.5094 1.08236 22.6359 1.40062 22.6359H20.6006C20.9189 22.6359 21.2241 22.5094 21.4492 22.2844C21.6742 22.0593 21.8006 21.7541 21.8006 21.4359V8.23585C21.8006 7.91759 21.6742 7.61237 21.4492 7.38732C21.2241 7.16228 20.9189 7.03585 20.6006 7.03585H1.40062Z" fill="white"/>
<path fill-rule="evenodd" clip-rule="evenodd" d="M6.20065 11.2359C6.20065 11.0767 6.26386 10.9241 6.37638 10.8116C6.48891 10.6991 6.64152 10.6359 6.80065 10.6359H15.2006C15.3598 10.6359 15.5124 10.6991 15.6249 10.8116C15.7374 10.9241 15.8006 11.0767 15.8006 11.2359C15.8006 11.395 15.7374 11.5476 15.6249 11.6601C15.5124 11.7726 15.3598 11.8359 15.2006 11.8359H6.80065C6.64152 11.8359 6.48891 11.7726 6.37638 11.6601C6.26386 11.5476 6.20065 11.395 6.20065 11.2359ZM5.00065 14.8359C5.00065 14.6767 5.06386 14.5241 5.17638 14.4116C5.28891 14.2991 5.44152 14.2359 5.60065 14.2359H16.4006C16.5598 14.2359 16.7124 14.2991 16.8249 14.4116C16.9374 14.5241 17.0006 14.6767 17.0006 14.8359C17.0006 14.995 16.9374 15.1476 16.8249 15.2601C16.7124 15.3726 16.5598 15.4359 16.4006 15.4359H5.60065C5.44152 15.4359 5.28891 15.3726 5.17638 15.2601C5.06386 15.1476 5.00065 14.995 5.00065 14.8359ZM6.20065 18.4359C6.20065 18.2767 6.26386 18.1241 6.37638 18.0116C6.48891 17.8991 6.64152 17.8359 6.80065 17.8359H15.2006C15.3598 17.8359 15.5124 17.8991 15.6249 18.0116C15.7374 18.1241 15.8006 18.2767 15.8006 18.4359C15.8006 18.595 15.7374 18.7476 15.6249 18.8601C15.5124 18.9726 15.3598 19.0359 15.2006 19.0359H6.80065C6.64152 19.0359 6.48891 18.9726 6.37638 18.8601C6.26386 18.7476 6.20065 18.595 6.20065 18.4359ZM13.1222 2.80585C12.8437 2.52719 12.5129 2.30614 12.1489 2.15533C11.7849 2.00452 11.3947 1.92689 11.0006 1.92689C10.6066 1.92689 10.2164 2.00452 9.85241 2.15533C9.48839 2.30614 9.15763 2.52719 8.87905 2.80585L4.22545 7.46065C4.11278 7.57332 3.95998 7.63661 3.80065 7.63661C3.64132 7.63661 3.48851 7.57332 3.37585 7.46065C3.26318 7.34799 3.19989 7.19518 3.19989 7.03585C3.19989 6.95696 3.21543 6.87884 3.24562 6.80595C3.27581 6.73307 3.32006 6.66684 3.37585 6.61105L8.03185 1.95745C8.81946 1.17007 9.88756 0.727749 11.0012 0.727749C12.1149 0.727749 13.183 1.17007 13.9706 1.95745L18.6254 6.61225C18.6812 6.66804 18.7253 6.73425 18.7554 6.80711C18.7856 6.87996 18.801 6.95804 18.801 7.03688C18.8009 7.11571 18.7853 7.19377 18.7551 7.26658C18.7249 7.3394 18.6806 7.40555 18.6248 7.46125C18.5691 7.51696 18.5029 7.56113 18.43 7.59125C18.3571 7.62137 18.2791 7.63684 18.2002 7.63679C18.1214 7.63673 18.0433 7.62115 17.9705 7.59093C17.8977 7.5607 17.8316 7.51644 17.7758 7.46065L13.1222 2.80585Z" fill="white"/>
</svg>
