<svg width="20" height="20" viewBox="0 0 20 20" fill="none" xmlns="http://www.w3.org/2000/svg">
<path d="M4.999 0.0917582H-0.00262451V5.09338H4.999V0.0917582ZM3.66523 3.75961H1.33114V1.42552H3.66523V3.75961ZM4.999 7.42747H-0.00262451V12.4291H4.999V7.42747ZM3.66523 11.0953H1.33114V8.76124H3.66523V11.0953ZM4.999 14.7632H-0.00262451V19.7648H4.999V14.7632ZM3.66523 18.431H1.33114V16.0969H3.66523V18.431ZM6.6662 0.0916748H20.0039V1.42544H6.6662V0.0916748ZM6.6662 3.75953H17.3363V5.0933H6.6662V3.75953ZM6.6662 7.42739H20.0039V8.76115H6.6662V7.42739ZM6.6662 11.0952H17.3363V12.429H6.6662V11.0952ZM6.6662 18.431H17.3363V19.7647H6.6662V18.431ZM6.6662 14.7631H20.0039V16.0969H6.6662V14.7631Z" fill="white"/>
</svg>
