<svg width="20" height="19" viewBox="0 0 20 19" fill="none" xmlns="http://www.w3.org/2000/svg">
<path d="M10.0006 9.92825C11.6575 9.92825 13.0006 8.58511 13.0006 6.92825C13.0006 5.2714 11.6575 3.92825 10.0006 3.92825C8.34376 3.92825 7.00061 5.2714 7.00061 6.92825C7.00061 8.58511 8.34376 9.92825 10.0006 9.92825Z" fill="white"/>
<path fill-rule="evenodd" clip-rule="evenodd" d="M15.4516 13.8363C15.479 13.8865 15.4873 13.9449 15.475 14.0008C15.4627 14.0567 15.4306 14.1062 15.3846 14.1403C13.831 15.3037 11.9416 15.9311 10.0006 15.9283C8.05964 15.9311 6.17023 15.3037 4.61659 14.1403C4.57061 14.1062 4.5385 14.0567 4.52618 14.0008C4.51387 13.9449 4.52218 13.8865 4.54959 13.8363C5.49959 12.1203 7.58259 10.9283 10.0006 10.9283C12.4186 10.9283 14.5016 12.1193 15.4516 13.8363Z" fill="white"/>
<path d="M15.5006 1.42825H15.7006C17.4916 1.42825 18.3876 1.42825 18.9446 1.98425C19.5006 2.54125 19.5006 3.43725 19.5006 5.22825V5.42825M15.5006 18.4283H15.7006C17.4916 18.4283 18.3876 18.4283 18.9446 17.8723C19.5006 17.3153 19.5006 16.4193 19.5006 14.6283V14.4283M4.50061 1.42825H4.30061C2.50961 1.42825 1.61361 1.42825 1.05761 1.98425C0.50061 2.54225 0.50061 3.43825 0.50061 5.22825V5.42825M4.50061 18.4283H4.30061C2.50961 18.4283 1.61361 18.4283 1.05761 17.8723C0.50061 17.3153 0.50061 16.4183 0.50061 14.6283V14.4283" stroke="white" stroke-linecap="round"/>
</svg>
