<svg width="24" height="25" viewBox="0 0 24 25" fill="none" xmlns="http://www.w3.org/2000/svg">
<path d="M7.50061 14.4283H13.5006V15.9283H7.50061V14.4283ZM7.50061 10.6783H16.5006V12.1783H7.50061V10.6783ZM7.50061 18.1783H11.2506V19.6783H7.50061V18.1783Z" fill="white"/>
<path d="M18.7506 4.67825H16.5006V3.92825C16.5006 3.53043 16.3426 3.1489 16.0613 2.86759C15.78 2.58629 15.3984 2.42825 15.0006 2.42825H9.00061C8.60279 2.42825 8.22126 2.58629 7.93995 2.86759C7.65865 3.1489 7.50061 3.53043 7.50061 3.92825V4.67825H5.25061C4.85279 4.67825 4.47125 4.83629 4.18995 5.11759C3.90865 5.3989 3.75061 5.78043 3.75061 6.17825V21.9283C3.75061 22.3261 3.90865 22.7076 4.18995 22.9889C4.47125 23.2702 4.85279 23.4283 5.25061 23.4283H18.7506C19.1484 23.4283 19.53 23.2702 19.8113 22.9889C20.0926 22.7076 20.2506 22.3261 20.2506 21.9283V6.17825C20.2506 5.78043 20.0926 5.3989 19.8113 5.11759C19.53 4.83629 19.1484 4.67825 18.7506 4.67825ZM9.00061 3.92825H15.0006V6.92825H9.00061V3.92825ZM18.7506 21.9283H5.25061V6.17825H7.50061V8.42825H16.5006V6.17825H18.7506V21.9283Z" fill="white"/>
</svg>
