<svg width="24" height="25" viewBox="0 0 24 25" fill="none" xmlns="http://www.w3.org/2000/svg">
<path d="M21.0006 5.42825C21.0006 5.03043 20.8426 4.6489 20.5613 4.36759C20.28 4.08629 19.8984 3.92825 19.5006 3.92825H16.5006V2.42825H15.0006V3.92825H9.00061V2.42825H7.50061V3.92825H4.50061C4.10279 3.92825 3.72125 4.08629 3.43995 4.36759C3.15865 4.6489 3.00061 5.03043 3.00061 5.42825V20.4283C3.00061 20.8261 3.15865 21.2076 3.43995 21.4889C3.72125 21.7702 4.10279 21.9283 4.50061 21.9283H7.50061V20.4283H4.50061V5.42825H7.50061V6.92825H9.00061V5.42825H15.0006V6.92825H16.5006V5.42825H19.5006V9.92825H21.0006V5.42825Z" fill="white"/>
<path d="M15.7506 12.1783L17.6624 15.8818L21.7506 16.475L18.7506 19.358L19.5006 23.4283L15.7506 21.5068L12.0006 23.4283L12.7506 19.358L9.75061 16.475L13.9506 15.8818L15.7506 12.1783Z" fill="white"/>
</svg>
