<svg width="22" height="20" viewBox="0 0 22 20" fill="none" xmlns="http://www.w3.org/2000/svg">
<path d="M5.00061 9H13.0006V11H5.00061V14L0.000610352 10L5.00061 6V9ZM4.00061 16H6.70861C7.8633 17.0183 9.2873 17.6819 10.8097 17.9109C12.3322 18.14 13.8884 17.9249 15.2916 17.2915C16.6948 16.6581 17.8855 15.6332 18.7207 14.3398C19.5559 13.0465 20.0001 11.5396 20.0001 10C20.0001 8.46042 19.5559 6.95354 18.7207 5.66019C17.8855 4.36683 16.6948 3.34194 15.2916 2.7085C13.8884 2.07506 12.3322 1.85997 10.8097 2.08906C9.2873 2.31814 7.8633 2.98167 6.70861 4H4.00061C4.93154 2.75746 6.13927 1.74901 7.52795 1.05467C8.91662 0.360334 10.448 -0.000775917 12.0006 1.25179e-06C17.5236 1.25179e-06 22.0006 4.477 22.0006 10C22.0006 15.523 17.5236 20 12.0006 20C10.448 20.0008 8.91662 19.6397 7.52795 18.9453C6.13927 18.251 4.93154 17.2425 4.00061 16Z" fill="white"/>
</svg>
