<svg width="22" height="20" viewBox="0 0 22 20" fill="none" xmlns="http://www.w3.org/2000/svg">
<path d="M13.7898 7.35684C14.3013 7.35684 14.7918 7.56003 15.1535 7.9217C15.5151 8.28338 15.7183 8.77392 15.7183 9.28541V14.6417C15.7183 15.8922 15.2216 17.0915 14.3373 17.9758C13.453 18.8601 12.2537 19.3568 11.0032 19.3568C9.75266 19.3568 8.55334 18.8601 7.66908 17.9758C6.78482 17.0915 6.28805 15.8922 6.28805 14.6417V9.28541C6.28805 8.77392 6.49124 8.28338 6.85291 7.9217C7.21459 7.56003 7.70513 7.35684 8.21662 7.35684H13.7898ZM13.7898 8.64255H8.21662C8.04612 8.64255 7.88261 8.71028 7.76205 8.83084C7.64149 8.9514 7.57376 9.11491 7.57376 9.28541V14.6417C7.57376 15.5512 7.93508 16.4235 8.57822 17.0667C9.22136 17.7098 10.0937 18.0711 11.0032 18.0711C11.9127 18.0711 12.785 17.7098 13.4282 17.0667C14.0713 16.4235 14.4326 15.5512 14.4326 14.6417V9.28541C14.4326 9.11491 14.3649 8.9514 14.2443 8.83084C14.1238 8.71028 13.9603 8.64255 13.7898 8.64255ZM2.64348 7.35684H6.20576C5.86154 7.71506 5.6197 8.15906 5.50548 8.64255H2.64348C2.47298 8.64255 2.30947 8.71028 2.18891 8.83084C2.06835 8.9514 2.00062 9.11491 2.00062 9.28541V13.7846C2.00028 14.2147 2.10786 14.6381 2.31351 15.0159C2.51915 15.3937 2.81629 15.7139 3.17772 15.9471C3.53914 16.1804 3.95331 16.3192 4.38229 16.351C4.81128 16.3827 5.24137 16.3063 5.63319 16.1288C5.74719 16.5488 5.91091 16.9483 6.11662 17.322C5.52938 17.5786 4.88745 17.6849 4.24883 17.6312C3.61022 17.5775 2.99505 17.3655 2.45891 17.0144C1.92278 16.6633 1.48257 16.1841 1.17808 15.6202C0.873585 15.0563 0.7144 14.4254 0.714906 13.7846V9.28541C0.714906 8.77392 0.918094 8.28338 1.27977 7.9217C1.64145 7.56003 2.13199 7.35684 2.64348 7.35684ZM19.3578 7.35684C19.8693 7.35684 20.3598 7.56003 20.7215 7.9217C21.0831 8.28338 21.2863 8.77392 21.2863 9.28541V13.7854C21.2866 14.4258 21.1274 15.0562 20.8231 15.6198C20.5188 16.1833 20.0789 16.6621 19.5433 17.0131C19.0076 17.3642 18.393 17.5763 17.7548 17.6303C17.1167 17.6844 16.4751 17.5787 15.888 17.3228L15.936 17.2354C16.1195 16.8874 16.2678 16.518 16.374 16.1306C16.7657 16.3068 17.1952 16.3821 17.6234 16.3497C18.0516 16.3172 18.4649 16.1781 18.8255 15.9449C19.1861 15.7117 19.4826 15.3919 19.6879 15.0147C19.8931 14.6375 20.0006 14.2149 20.0006 13.7854V9.28541C20.0006 9.11506 19.933 8.95168 19.8126 8.83114C19.6923 8.71061 19.529 8.64278 19.3586 8.64255H16.5018C16.3873 8.15897 16.1452 7.71496 15.8006 7.35684H19.3578ZM11.0006 0.499695C11.3946 0.499695 11.7847 0.577292 12.1487 0.728056C12.5126 0.87882 12.8434 1.0998 13.1219 1.37837C13.4005 1.65695 13.6215 1.98767 13.7723 2.35164C13.923 2.71562 14.0006 3.10573 14.0006 3.49969C14.0006 3.89366 13.923 4.28377 13.7723 4.64775C13.6215 5.01172 13.4005 5.34244 13.1219 5.62102C12.8434 5.89959 12.5126 6.12057 12.1487 6.27133C11.7847 6.4221 11.3946 6.49969 11.0006 6.49969C10.205 6.49969 9.44191 6.18362 8.8793 5.62102C8.31669 5.05841 8.00062 4.29534 8.00062 3.49969C8.00062 2.70405 8.31669 1.94098 8.8793 1.37837C9.44191 0.815766 10.205 0.499695 11.0006 0.499695ZM17.8603 1.35684C18.198 1.35684 18.5324 1.42335 18.8444 1.55258C19.1564 1.6818 19.4398 1.87121 19.6786 2.10999C19.9174 2.34877 20.1068 2.63224 20.236 2.94422C20.3653 3.2562 20.4318 3.59058 20.4318 3.92827C20.4318 4.26595 20.3653 4.60033 20.236 4.91231C20.1068 5.22429 19.9174 5.50776 19.6786 5.74654C19.4398 5.98532 19.1564 6.17473 18.8444 6.30396C18.5324 6.43318 18.198 6.49969 17.8603 6.49969C17.1784 6.49969 16.5243 6.22878 16.0421 5.74654C15.5598 5.2643 15.2889 4.61025 15.2889 3.92827C15.2889 3.24628 15.5598 2.59223 16.0421 2.10999C16.5243 1.62776 17.1784 1.35684 17.8603 1.35684ZM4.14091 1.35684C4.47859 1.35684 4.81297 1.42335 5.12495 1.55258C5.43693 1.6818 5.7204 1.87121 5.95918 2.10999C6.19796 2.34877 6.38737 2.63224 6.5166 2.94422C6.64582 3.2562 6.71233 3.59058 6.71233 3.92827C6.71233 4.26595 6.64582 4.60033 6.5166 4.91231C6.38737 5.22429 6.19796 5.50776 5.95918 5.74654C5.7204 5.98532 5.43693 6.17473 5.12495 6.30396C4.81297 6.43318 4.47859 6.49969 4.14091 6.49969C3.45892 6.49969 2.80487 6.22878 2.32263 5.74654C1.8404 5.2643 1.56948 4.61025 1.56948 3.92827C1.56948 3.24628 1.8404 2.59223 2.32263 2.10999C2.80487 1.62776 3.45892 1.35684 4.14091 1.35684ZM11.0006 1.78541C10.546 1.78541 10.1099 1.96602 9.78844 2.28751C9.46695 2.609 9.28633 3.04504 9.28633 3.49969C9.28633 3.95435 9.46695 4.39039 9.78844 4.71188C10.1099 5.03337 10.546 5.21398 11.0006 5.21398C11.4553 5.21398 11.8913 5.03337 12.2128 4.71188C12.5343 4.39039 12.7149 3.95435 12.7149 3.49969C12.7149 3.04504 12.5343 2.609 12.2128 2.28751C11.8913 1.96602 11.4553 1.78541 11.0006 1.78541ZM17.8603 2.64255C17.6915 2.64255 17.5243 2.67581 17.3683 2.74042C17.2123 2.80503 17.0706 2.89974 16.9512 3.01913C16.8318 3.13852 16.7371 3.28025 16.6725 3.43624C16.6079 3.59223 16.5746 3.75942 16.5746 3.92827C16.5746 4.09711 16.6079 4.2643 16.6725 4.42029C16.7371 4.57628 16.8318 4.71801 16.9512 4.8374C17.0706 4.95679 17.2123 5.0515 17.3683 5.11611C17.5243 5.18072 17.6915 5.21398 17.8603 5.21398C18.2013 5.21398 18.5284 5.07852 18.7695 4.8374C19.0106 4.59629 19.146 4.26926 19.146 3.92827C19.146 3.58727 19.0106 3.26025 18.7695 3.01913C18.5284 2.77801 18.2013 2.64255 17.8603 2.64255ZM4.14091 2.64255C3.97206 2.64255 3.80487 2.67581 3.64888 2.74042C3.49289 2.80503 3.35116 2.89974 3.23177 3.01913C3.11238 3.13852 3.01767 3.28025 2.95306 3.43624C2.88845 3.59223 2.85519 3.75942 2.85519 3.92827C2.85519 4.09711 2.88845 4.2643 2.95306 4.42029C3.01767 4.57628 3.11238 4.71801 3.23177 4.8374C3.35116 4.95679 3.49289 5.0515 3.64888 5.11611C3.80487 5.18072 3.97206 5.21398 4.14091 5.21398C4.4819 5.21398 4.80893 5.07852 5.05004 4.8374C5.29116 4.59629 5.42662 4.26926 5.42662 3.92827C5.42662 3.58727 5.29116 3.26025 5.05004 3.01913C4.80893 2.77801 4.4819 2.64255 4.14091 2.64255Z" fill="white"/>
</svg>
