<svg width="25" height="25" viewBox="0 0 25 25" fill="none" xmlns="http://www.w3.org/2000/svg">
<path d="M12.3457 3.86664C9.03571 3.86664 6.34571 6.55664 6.34571 9.86664V12.7566C6.34571 13.3666 6.08571 14.2966 5.77571 14.8166L4.62571 16.7266C3.91571 17.9066 4.40571 19.2166 5.70571 19.6566C10.0157 21.0966 14.6657 21.0966 18.9757 19.6566C20.1857 19.2566 20.7157 17.8266 20.0557 16.7266L18.9057 14.8166C18.6057 14.2966 18.3457 13.3666 18.3457 12.7566V9.86664C18.3457 6.56664 15.6457 3.86664 12.3457 3.86664Z" stroke="#292D32" stroke-width="1.5" stroke-miterlimit="10" stroke-linecap="round"/>
<path d="M14.1957 4.15667C13.8857 4.06667 13.5657 3.99667 13.2357 3.95667C12.2757 3.83667 11.3557 3.90667 10.4957 4.15667C10.7857 3.41667 11.5057 2.89667 12.3457 2.89667C13.1857 2.89667 13.9057 3.41667 14.1957 4.15667Z" stroke="#292D32" stroke-width="1.5" stroke-miterlimit="10" stroke-linecap="round" stroke-linejoin="round"/>
<path d="M15.3457 20.0167C15.3457 21.6667 13.9957 23.0167 12.3457 23.0167C11.5257 23.0167 10.7657 22.6767 10.2257 22.1367C9.6857 21.5967 9.3457 20.8367 9.3457 20.0167" stroke="#292D32" stroke-width="1.5" stroke-miterlimit="10"/>
</svg>
