<svg width="24" height="25" viewBox="0 0 24 25" fill="none" xmlns="http://www.w3.org/2000/svg">
<path d="M12.0006 23.4283L5.67362 15.9665C5.5857 15.8545 5.4987 15.7417 5.41262 15.6283C4.3324 14.2043 3.7486 12.4656 3.75062 10.6783C3.75062 8.49022 4.61981 6.3918 6.16698 4.84462C7.71416 3.29745 9.81258 2.42825 12.0006 2.42825C14.1887 2.42825 16.2871 3.29745 17.8342 4.84462C19.3814 6.3918 20.2506 8.49022 20.2506 10.6783C20.2523 12.4647 19.6689 14.2026 18.5894 15.626L18.5886 15.6283C18.5886 15.6283 18.3636 15.9238 18.3299 15.9635L12.0006 23.4283ZM6.61037 14.7245C6.61037 14.7245 6.78512 14.9555 6.82487 15.005L12.0006 21.1093L17.1831 14.9968C17.2161 14.9555 17.3916 14.723 17.3924 14.7223C18.2753 13.5591 18.7524 12.1385 18.7506 10.6783C18.7506 8.88804 18.0395 7.17115 16.7736 5.90528C15.5077 4.63941 13.7908 3.92825 12.0006 3.92825C10.2104 3.92825 8.49351 4.63941 7.22764 5.90528C5.96177 7.17115 5.25062 8.88804 5.25062 10.6783C5.24876 12.1395 5.72645 13.5609 6.61037 14.7245Z" fill="white"/>
<path d="M15.7506 14.4283H14.2506V8.42825H9.75061V14.4283H8.25061V8.42825C8.25061 8.03043 8.40865 7.6489 8.68995 7.36759C8.97126 7.08629 9.35279 6.92825 9.75061 6.92825H14.2506C14.6484 6.92825 15.03 7.08629 15.3113 7.36759C15.5926 7.6489 15.7506 8.03043 15.7506 8.42825V14.4283Z" fill="white"/>
<path d="M11.2506 12.9283H12.7506V14.4283H11.2506V12.9283ZM11.2506 9.92825H12.7506V11.4283H11.2506V9.92825Z" fill="white"/>
</svg>
