<svg width="23" height="17" viewBox="0 0 23 17" fill="none" xmlns="http://www.w3.org/2000/svg">
<path d="M3.28633 4.07112C3.28633 3.56459 3.3861 3.06302 3.57994 2.59505C3.77378 2.12708 4.0579 1.70187 4.41606 1.3437C4.77423 0.985536 5.19944 0.701421 5.66741 0.507582C6.13538 0.313742 6.63695 0.213974 7.14348 0.213974C7.65 0.213974 8.15157 0.313742 8.61954 0.507582C9.08751 0.701421 9.51272 0.985536 9.87089 1.3437C10.2291 1.70187 10.5132 2.12708 10.707 2.59505C10.9009 3.06302 11.0006 3.56459 11.0006 4.07112C11.0006 5.0941 10.5942 6.07517 9.87089 6.79853C9.14753 7.52188 8.16645 7.92826 7.14348 7.92826C6.1205 7.92826 5.13942 7.52188 4.41606 6.79853C3.69271 6.07517 3.28633 5.0941 3.28633 4.07112ZM7.14348 1.49969C6.80579 1.49969 6.47141 1.5662 6.15943 1.69543C5.84745 1.82465 5.56398 2.01406 5.3252 2.25284C5.08642 2.49162 4.89701 2.77509 4.76779 3.08707C4.63856 3.39905 4.57205 3.73343 4.57205 4.07112C4.57205 4.4088 4.63856 4.74318 4.76779 5.05516C4.89701 5.36714 5.08642 5.65061 5.3252 5.88939C5.56398 6.12817 5.84745 6.31758 6.15943 6.44681C6.47141 6.57603 6.80579 6.64255 7.14348 6.64255C7.82546 6.64255 8.47951 6.37163 8.96175 5.88939C9.44399 5.40716 9.7149 4.7531 9.7149 4.07112C9.7149 3.38913 9.44399 2.73508 8.96175 2.25284C8.47951 1.77061 7.82546 1.49969 7.14348 1.49969ZM13.1435 4.92826C13.1435 4.53429 13.2211 4.14419 13.3718 3.78021C13.5226 3.41623 13.7436 3.08552 14.0222 2.80694C14.3007 2.52836 14.6314 2.30739 14.9954 2.15662C15.3594 2.00586 15.7495 1.92826 16.1435 1.92826C16.5374 1.92826 16.9275 2.00586 17.2915 2.15662C17.6555 2.30739 17.9862 2.52836 18.2648 2.80694C18.5434 3.08552 18.7643 3.41623 18.9151 3.78021C19.0659 4.14419 19.1435 4.53429 19.1435 4.92826C19.1435 5.72391 18.8274 6.48697 18.2648 7.04958C17.7022 7.61219 16.9391 7.92826 16.1435 7.92826C15.3478 7.92826 14.5848 7.61219 14.0222 7.04958C13.4595 6.48697 13.1435 5.72391 13.1435 4.92826ZM16.1435 3.21397C15.6888 3.21397 15.2528 3.39459 14.9313 3.71608C14.6098 4.03757 14.4292 4.4736 14.4292 4.92826C14.4292 5.38292 14.6098 5.81895 14.9313 6.14044C15.2528 6.46193 15.6888 6.64255 16.1435 6.64255C16.5981 6.64255 17.0342 6.46193 17.3557 6.14044C17.6771 5.81895 17.8578 5.38292 17.8578 4.92826C17.8578 4.4736 17.6771 4.03757 17.3557 3.71608C17.0342 3.39459 16.5981 3.21397 16.1435 3.21397ZM0.714905 11.5711C0.714905 11.0596 0.918093 10.5691 1.27977 10.2074C1.64145 9.84573 2.13199 9.64255 2.64348 9.64255H11.6435C11.7189 9.64255 11.7932 9.64683 11.8663 9.6554L10.5935 10.9283H2.64348C2.47298 10.9283 2.30947 10.996 2.18891 11.1165C2.06835 11.2371 2.00062 11.4006 2.00062 11.5711V12.0108L2.00833 12.0965C2.0169 12.1771 2.03405 12.298 2.07176 12.4463C2.1717 12.8427 2.34942 13.2154 2.59462 13.5425C3.17233 14.3114 4.40748 15.214 7.14348 15.214C8.62119 15.214 9.6609 14.9508 10.3955 14.5883L11.3435 15.5354C10.38 16.108 9.02748 16.4997 7.14348 16.4997C4.09376 16.4997 2.43605 15.4737 1.5669 14.314C1.21867 13.8498 0.966341 13.321 0.824619 12.7583C0.768524 12.5342 0.732665 12.3056 0.717476 12.0751L0.714905 12.0263V11.5711ZM14.2432 10.3094C14.3567 10.1875 14.4186 10.0264 14.4156 9.85981C14.4127 9.69327 14.3452 9.53437 14.2274 9.41659C14.1097 9.2988 13.9508 9.23133 13.7842 9.2284C13.6177 9.22546 13.4565 9.28728 13.3346 9.40083L10.332 12.4025C10.2117 12.5231 10.144 12.6865 10.144 12.8568C10.144 13.0272 10.2117 13.1906 10.332 13.3111L13.3338 16.3137C13.4556 16.4272 13.6168 16.4891 13.7834 16.4861C13.9499 16.4832 14.1088 16.4157 14.2266 16.2979C14.3444 16.1802 14.4118 16.0213 14.4148 15.8547C14.4177 15.6882 14.3559 15.527 14.2423 15.4051L12.3395 13.4997H19.9492L18.0446 15.4043C17.9275 15.5254 17.8626 15.6878 17.864 15.8564C17.8654 16.0249 17.9329 16.1862 18.052 16.3054C18.1712 16.4247 18.3324 16.4924 18.5009 16.4939C18.6695 16.4955 18.8319 16.4307 18.9532 16.3137L21.9558 13.3111C22.0761 13.1906 22.1438 13.0272 22.1438 12.8568C22.1438 12.6865 22.0761 12.5231 21.9558 12.4025L18.954 9.39997C18.8322 9.28642 18.671 9.2246 18.5045 9.22754C18.3379 9.23048 18.179 9.29794 18.0612 9.41573C17.9434 9.53351 17.876 9.69241 17.873 9.85896C17.8701 10.0255 17.9319 10.1867 18.0455 10.3085L19.9475 12.214H12.3378L14.2432 10.3094Z" fill="white"/>
</svg>
