<svg width="24" height="25" viewBox="0 0 24 25" fill="none" xmlns="http://www.w3.org/2000/svg">
<g clip-path="url(#clip0_1_1105)">
<path d="M21.3096 14.264V9.56863C21.3096 8.90226 21.8549 8.36038 22.525 8.36038C22.8454 8.36048 23.1526 8.48782 23.3791 8.7144C23.6056 8.94098 23.7329 9.24825 23.7329 9.56863V15.998C23.7326 16.8849 23.4157 17.7425 22.8393 18.4164L18.8301 22.6741C18.4323 23.0488 18.3348 23.3803 18.3348 23.8828V24.6579H13.9709L13.966 22.8136C13.966 22.1113 13.9086 21.1726 14.7876 20.2516L19.8749 15.1434C20.0522 14.9663 20.2915 14.8651 20.5421 14.8613C20.7927 14.8574 21.035 14.9512 21.2177 15.1227C21.4004 15.2943 21.5092 15.5302 21.5211 15.7805C21.533 16.0308 21.4471 16.276 21.2815 16.4641L18.8279 19.0925C18.6689 19.2789 18.3996 19.6303 18.2661 20.0608C18.1941 20.2843 18.1735 20.5021 18.1694 20.7523H18.9591C18.9621 20.5741 18.9756 20.4309 19.018 20.2981C19.0953 20.0499 19.249 19.8264 19.3649 19.6831L21.8556 16.9494C22.1688 16.6336 22.3405 16.2249 22.3405 15.7951C22.3405 15.1498 21.9516 14.5565 21.3096 14.264ZM2.92526 14.264V9.56863C2.92526 8.90226 2.38001 8.36038 1.70989 8.36038C1.38951 8.36048 1.08228 8.48782 0.85577 8.7144C0.62926 8.94098 0.502014 9.24825 0.502014 9.56863V15.998C0.502014 16.8871 0.821889 17.7459 1.39601 18.4164L5.40551 22.6741C5.80301 23.0488 5.90089 23.3803 5.90089 23.8828V24.6579H10.2648L10.2696 22.8136C10.2696 22.1113 10.327 21.1726 9.44801 20.2516L4.36076 15.1434C4.18342 14.9663 3.94415 14.8651 3.69356 14.8613C3.44296 14.8574 3.20069 14.9512 3.01799 15.1227C2.83528 15.2943 2.72646 15.5302 2.71455 15.7805C2.70263 16.0308 2.78855 16.276 2.95414 16.4641L5.40814 19.0925C5.56714 19.2789 5.83639 19.6303 5.96989 20.0608C6.04226 20.2843 6.06251 20.5021 6.06664 20.7523H5.27689C5.27389 20.5741 5.26076 20.4309 5.21764 20.2981C5.14076 20.0499 4.98664 19.8264 4.87076 19.6831L2.38001 16.9498C2.06689 16.634 1.89514 16.2249 1.89514 15.7955C1.89514 15.1498 2.28326 14.5565 2.92526 14.264Z" fill="white"/>
<path d="M4.18085 13.669V12.764H20.0541V13.669H4.18085ZM4.87768 11.5106V11.3024C4.87768 9.52267 5.48401 7.98331 6.69667 6.68438C7.91054 5.38665 9.41581 4.61139 11.2125 4.3586V3.05182H13.0224V4.35679C14.8233 4.61018 16.3292 5.38574 17.54 6.68347C18.7509 7.9812 19.3566 9.52086 19.3572 11.3024V11.5106H4.87768ZM5.846 10.6056H18.3889C18.2477 9.12991 17.5699 7.86174 16.3554 6.80112C15.141 5.74049 13.7283 5.21078 12.1175 5.21199C10.5066 5.21319 9.09485 5.7429 7.88218 6.80112C6.66952 7.85933 5.99079 9.1275 5.846 10.6056Z" fill="white"/>
</g>
<defs>
<clipPath id="clip0_1_1105">
<rect width="24" height="24" fill="white" transform="translate(0.000610352 0.928253)"/>
</clipPath>
</defs>
</svg>
